<mxfile host="app.diagrams.net" modified="2024-03-21T15:25:27.167Z" agent="Mozilla/5.0 (X11; Linux x86_64; rv:123.0) Gecko/20100101 Firefox/123.0" etag="Bxs60XLFwNm4AWRvT0jl" version="24.0.7" type="device">
  <diagram name="Page-1" id="u1hFVBIvXLZzldsGk6bR">
    <mxGraphModel dx="574" dy="307" grid="1" gridSize="10" guides="1" tooltips="1" connect="1" arrows="1" fold="1" page="1" pageScale="1" pageWidth="827" pageHeight="1169" math="0" shadow="0">
      <root>
        <mxCell id="0" />
        <mxCell id="1" parent="0" />
        <mxCell id="ulLYUKQadwiUD9jlaqwB-1" value="" style="curved=1;endArrow=classic;html=1;rounded=0;" edge="1" parent="1" source="ulLYUKQadwiUD9jlaqwB-11">
          <mxGeometry width="50" height="50" relative="1" as="geometry">
            <mxPoint x="240" y="320" as="sourcePoint" />
            <mxPoint x="460" y="400" as="targetPoint" />
            <Array as="points">
              <mxPoint x="360" y="390" />
              <mxPoint x="420" y="400" />
            </Array>
          </mxGeometry>
        </mxCell>
        <mxCell id="ulLYUKQadwiUD9jlaqwB-2" value="" style="curved=1;endArrow=classic;html=1;rounded=0;" edge="1" parent="1">
          <mxGeometry width="50" height="50" relative="1" as="geometry">
            <mxPoint x="240" y="480" as="sourcePoint" />
            <mxPoint x="460" y="400" as="targetPoint" />
            <Array as="points">
              <mxPoint x="360" y="410" />
              <mxPoint x="420" y="400" />
            </Array>
          </mxGeometry>
        </mxCell>
        <mxCell id="ulLYUKQadwiUD9jlaqwB-3" value="" style="ellipse;whiteSpace=wrap;html=1;aspect=fixed;" vertex="1" parent="1">
          <mxGeometry x="260" y="360" width="80" height="80" as="geometry" />
        </mxCell>
        <mxCell id="ulLYUKQadwiUD9jlaqwB-4" value="" style="endArrow=none;html=1;rounded=0;entryX=0.729;entryY=0.05;entryDx=0;entryDy=0;entryPerimeter=0;" edge="1" parent="1" target="ulLYUKQadwiUD9jlaqwB-3">
          <mxGeometry width="50" height="50" relative="1" as="geometry">
            <mxPoint x="300" y="400" as="sourcePoint" />
            <mxPoint x="350" y="350" as="targetPoint" />
          </mxGeometry>
        </mxCell>
        <mxCell id="ulLYUKQadwiUD9jlaqwB-5" value="" style="endArrow=none;html=1;rounded=0;entryX=0.746;entryY=0.958;entryDx=0;entryDy=0;entryPerimeter=0;" edge="1" parent="1" target="ulLYUKQadwiUD9jlaqwB-3">
          <mxGeometry width="50" height="50" relative="1" as="geometry">
            <mxPoint x="300" y="400" as="sourcePoint" />
            <mxPoint x="328" y="374" as="targetPoint" />
          </mxGeometry>
        </mxCell>
        <mxCell id="ulLYUKQadwiUD9jlaqwB-6" value="r" style="text;html=1;align=center;verticalAlign=middle;whiteSpace=wrap;rounded=0;" vertex="1" parent="1">
          <mxGeometry x="290" y="380" width="20" height="10" as="geometry" />
        </mxCell>
        <mxCell id="ulLYUKQadwiUD9jlaqwB-8" value="S_b" style="text;html=1;align=center;verticalAlign=middle;whiteSpace=wrap;rounded=0;" vertex="1" parent="1">
          <mxGeometry x="354" y="440" width="60" height="30" as="geometry" />
        </mxCell>
        <mxCell id="ulLYUKQadwiUD9jlaqwB-9" value="" style="endArrow=none;dashed=1;html=1;dashPattern=1 3;strokeWidth=2;rounded=0;" edge="1" parent="1" source="ulLYUKQadwiUD9jlaqwB-3">
          <mxGeometry width="50" height="50" relative="1" as="geometry">
            <mxPoint x="320" y="500" as="sourcePoint" />
            <mxPoint x="370" y="450" as="targetPoint" />
          </mxGeometry>
        </mxCell>
        <mxCell id="ulLYUKQadwiUD9jlaqwB-12" value="" style="curved=1;endArrow=classic;html=1;rounded=0;" edge="1" parent="1" target="ulLYUKQadwiUD9jlaqwB-11">
          <mxGeometry width="50" height="50" relative="1" as="geometry">
            <mxPoint x="240" y="320" as="sourcePoint" />
            <mxPoint x="460" y="400" as="targetPoint" />
            <Array as="points" />
          </mxGeometry>
        </mxCell>
        <mxCell id="ulLYUKQadwiUD9jlaqwB-11" value="" style="shape=switch;whiteSpace=wrap;html=1;fillColor=#f8cecc;strokeColor=#b85450;" vertex="1" parent="1">
          <mxGeometry x="310" y="360" width="10" height="10" as="geometry" />
        </mxCell>
        <mxCell id="ulLYUKQadwiUD9jlaqwB-13" value="" style="shape=switch;whiteSpace=wrap;html=1;fillColor=#f8cecc;strokeColor=#b85450;" vertex="1" parent="1">
          <mxGeometry x="264" y="332" width="10" height="10" as="geometry" />
        </mxCell>
        <mxCell id="ulLYUKQadwiUD9jlaqwB-14" value="" style="shape=switch;whiteSpace=wrap;html=1;fillColor=#f8cecc;strokeColor=#b85450;" vertex="1" parent="1">
          <mxGeometry x="354" y="380" width="10" height="10" as="geometry" />
        </mxCell>
        <mxCell id="ulLYUKQadwiUD9jlaqwB-15" value="" style="shape=switch;whiteSpace=wrap;html=1;fillColor=#f8cecc;strokeColor=#b85450;" vertex="1" parent="1">
          <mxGeometry x="400" y="390" width="10" height="10" as="geometry" />
        </mxCell>
        <mxCell id="ulLYUKQadwiUD9jlaqwB-18" value="" style="shape=switch;whiteSpace=wrap;html=1;fillColor=#f8cecc;strokeColor=#b85450;" vertex="1" parent="1">
          <mxGeometry x="445" y="395" width="10" height="10" as="geometry" />
        </mxCell>
        <mxCell id="ulLYUKQadwiUD9jlaqwB-22" value="" style="endArrow=classic;html=1;rounded=0;" edge="1" parent="1">
          <mxGeometry width="50" height="50" relative="1" as="geometry">
            <mxPoint x="490" y="400" as="sourcePoint" />
            <mxPoint x="490" y="350" as="targetPoint" />
          </mxGeometry>
        </mxCell>
        <mxCell id="ulLYUKQadwiUD9jlaqwB-23" value="" style="endArrow=classic;html=1;rounded=0;" edge="1" parent="1">
          <mxGeometry width="50" height="50" relative="1" as="geometry">
            <mxPoint x="490" y="399.72" as="sourcePoint" />
            <mxPoint x="540" y="399.72" as="targetPoint" />
          </mxGeometry>
        </mxCell>
        <mxCell id="ulLYUKQadwiUD9jlaqwB-24" value="y" style="text;html=1;align=center;verticalAlign=middle;whiteSpace=wrap;rounded=0;" vertex="1" parent="1">
          <mxGeometry x="460" y="320" width="60" height="30" as="geometry" />
        </mxCell>
        <mxCell id="ulLYUKQadwiUD9jlaqwB-25" value="x" style="text;html=1;align=center;verticalAlign=middle;whiteSpace=wrap;rounded=0;" vertex="1" parent="1">
          <mxGeometry x="520" y="385" width="60" height="30" as="geometry" />
        </mxCell>
        <mxCell id="ulLYUKQadwiUD9jlaqwB-26" value="" style="endArrow=none;html=1;rounded=0;" edge="1" parent="1">
          <mxGeometry width="50" height="50" relative="1" as="geometry">
            <mxPoint x="460" y="530" as="sourcePoint" />
            <mxPoint x="460" y="490" as="targetPoint" />
          </mxGeometry>
        </mxCell>
        <mxCell id="ulLYUKQadwiUD9jlaqwB-28" value="" style="endArrow=none;html=1;rounded=0;" edge="1" parent="1">
          <mxGeometry width="50" height="50" relative="1" as="geometry">
            <mxPoint x="315" y="530" as="sourcePoint" />
            <mxPoint x="314.8" y="490" as="targetPoint" />
          </mxGeometry>
        </mxCell>
        <mxCell id="ulLYUKQadwiUD9jlaqwB-29" value="" style="endArrow=classic;startArrow=classic;html=1;rounded=0;" edge="1" parent="1">
          <mxGeometry width="50" height="50" relative="1" as="geometry">
            <mxPoint x="314" y="510" as="sourcePoint" />
            <mxPoint x="460" y="510" as="targetPoint" />
          </mxGeometry>
        </mxCell>
        <mxCell id="ulLYUKQadwiUD9jlaqwB-30" value="threshold distance" style="text;html=1;align=center;verticalAlign=middle;whiteSpace=wrap;rounded=0;" vertex="1" parent="1">
          <mxGeometry x="354" y="520" width="60" height="30" as="geometry" />
        </mxCell>
      </root>
    </mxGraphModel>
  </diagram>
</mxfile>
